<svg width="16" height="16" viewBox="0 0 16 16" fill="none" xmlns="http://www.w3.org/2000/svg">
<path fill-rule="evenodd" clip-rule="evenodd" d="M2.3723 2.3723C5.49656 -0.751963 10.5483 -0.795861 13.7264 2.27363C16.7959 5.45172 16.752 10.5034 13.6277 13.6277C10.5034 16.752 5.45172 16.7959 2.27363 13.7264C-0.795861 10.5483 -0.751963 5.49656 2.3723 2.3723ZM11.6906 10.8746C11.6906 10.6586 11.6043 10.4516 11.451 10.2995L9.14262 7.99922L11.451 5.69896C11.6564 5.49351 11.7367 5.19405 11.6615 4.9134C11.5863 4.63275 11.3671 4.41354 11.0864 4.33834C10.8058 4.26314 10.5063 4.34337 10.3009 4.54882L8.00059 6.85719L5.70032 4.54882C5.49487 4.34337 5.19542 4.26314 4.91477 4.33834C4.63411 4.41354 4.4149 4.63275 4.3397 4.9134C4.2645 5.19405 4.34474 5.49351 4.55019 5.69896L6.85855 7.99922L4.55019 10.2995C4.39685 10.4516 4.31061 10.6586 4.31061 10.8746C4.31061 11.0905 4.39685 11.2975 4.55019 11.4496C4.70304 11.6012 4.90997 11.6858 5.12526 11.6845C5.34054 11.6858 5.54747 11.6012 5.70032 11.4496L8.00059 9.14126L10.3009 11.4496C10.4537 11.6012 10.6606 11.6858 10.8759 11.6845C11.0912 11.6858 11.2981 11.6012 11.451 11.4496C11.6043 11.2975 11.6906 11.0905 11.6906 10.8746Z" fill="#0B61A4"/>
</svg>
