<svg width="16" height="16" viewBox="0 0 16 16" fill="none" xmlns="http://www.w3.org/2000/svg">
<path d="M16 8C16 12.4183 12.4183 16 8 16C3.58172 16 0 12.4183 0 8C0 3.58172 3.58172 0 8 0C12.4183 0 16 3.58172 16 8Z" fill="white"/>
<path d="M8.24738 4.24357C8.24738 3.97579 8.35742 3.73478 8.57748 3.52056C8.80402 3.30633 9.05644 3.19922 9.33476 3.19922C9.57424 3.19922 9.76518 3.27286 9.90758 3.42014C10.0564 3.56742 10.1309 3.76156 10.1309 4.00257C10.1309 4.29043 10.0273 4.54148 9.8202 4.7557C9.61308 4.96324 9.36712 5.067 9.08233 5.067C8.81696 5.067 8.60984 4.99671 8.46098 4.85612C8.31858 4.70884 8.24738 4.50466 8.24738 4.24357ZM6.43185 7.82851L5.83962 8.42098C5.749 8.50801 5.6325 8.62516 5.4901 8.77244C5.21178 9.06031 5.0435 9.20424 4.98525 9.20424C4.92699 9.20424 4.88169 9.19755 4.84932 9.18416C4.81696 9.16407 4.80078 9.13729 4.80078 9.10382C4.80078 9.02349 4.92376 8.87286 5.16971 8.65194C5.34447 8.48457 5.48687 8.34734 5.5969 8.24022L6.23767 7.57746C6.25709 7.55738 6.29269 7.52056 6.34447 7.467C6.7134 7.08541 7.0079 6.75403 7.22797 6.47286L9.29593 6.32223L7.28622 10.1281C6.98201 10.7038 6.749 11.1624 6.58719 11.5038C6.43185 11.8452 6.35418 12.0595 6.35418 12.1465C6.35418 12.2001 6.37036 12.2436 6.40272 12.277C6.43509 12.3105 6.47716 12.3273 6.52894 12.3273C6.71017 12.3273 7.02732 12.1398 7.48039 11.7649C7.93994 11.3833 8.51276 10.831 9.19884 10.108C10.3898 8.86282 11.2021 8.05612 11.6357 7.68792C12.0694 7.31303 12.3833 7.12558 12.5775 7.12558C12.5904 7.12558 12.639 7.13562 12.7231 7.1557C12.7555 7.1624 12.7814 7.16575 12.8008 7.16575C12.2895 7.44692 11.4642 8.2101 10.3251 9.45529C9.94965 9.86365 9.65839 10.1783 9.45127 10.3992C8.57101 11.3298 7.88492 11.9624 7.39301 12.2971C6.90758 12.6319 6.4545 12.7992 6.03379 12.7992C5.65839 12.7992 5.36389 12.6854 5.1503 12.4578C4.94318 12.2235 4.83962 11.8988 4.83962 11.4837C4.83962 10.9415 5.26356 9.91386 6.11146 8.40089C6.25386 8.15319 6.36065 7.9624 6.43185 7.82851Z" fill="#0B61A4"/>
</svg>
